<?xml version="1.0" encoding="UTF-8" ?>
<svg version="1.1" width="32" height="32" xmlns="http://www.w3.org/2000/svg" shape-rendering="crispEdges">
<rect x="0" y="0" width="16" height="2" fill="#083D77" />
<rect x="16" y="0" width="16" height="2" fill="#995D81" />
<rect x="0" y="2" width="2" height="14" fill="#083D77" />
<rect x="2" y="2" width="2" height="12" fill="#FFFFFF" />
<rect x="4" y="2" width="2" height="14" fill="#083D77" />
<rect x="6" y="2" width="8" height="2" fill="#FFFFFF" />
<rect x="14" y="2" width="2" height="14" fill="#083D77" />
<rect x="16" y="2" width="2" height="14" fill="#995D81" />
<rect x="18" y="2" width="2" height="12" fill="#FFFFFF" />
<rect x="20" y="2" width="4" height="2" fill="#995D81" />
<rect x="24" y="2" width="6" height="2" fill="#FFFFFF" />
<rect x="30" y="2" width="2" height="14" fill="#995D81" />
<rect x="6" y="4" width="2" height="10" fill="#FFFFFF" />
<rect x="8" y="4" width="6" height="2" fill="#083D77" />
<rect x="20" y="4" width="2" height="12" fill="#995D81" />
<rect x="22" y="4" width="2" height="2" fill="#FFFFFF" />
<rect x="24" y="4" width="6" height="2" fill="#995D81" />
<rect x="8" y="6" width="4" height="2" fill="#FFFFFF" />
<rect x="12" y="6" width="2" height="10" fill="#083D77" />
<rect x="22" y="6" width="2" height="6" fill="#995D81" />
<rect x="24" y="6" width="4" height="2" fill="#FFFFFF" />
<rect x="28" y="6" width="2" height="2" fill="#995D81" />
<rect x="8" y="8" width="4" height="8" fill="#083D77" />
<rect x="24" y="8" width="4" height="4" fill="#995D81" />
<rect x="28" y="8" width="2" height="4" fill="#FFFFFF" />
<rect x="22" y="12" width="6" height="2" fill="#FFFFFF" />
<rect x="28" y="12" width="2" height="4" fill="#995D81" />
<rect x="2" y="14" width="2" height="2" fill="#083D77" />
<rect x="6" y="14" width="2" height="2" fill="#083D77" />
<rect x="18" y="14" width="2" height="2" fill="#995D81" />
<rect x="22" y="14" width="6" height="2" fill="#995D81" />
<rect x="16" y="16" width="16" height="1" fill="#083D77" />
<rect x="16" y="17" width="2" height="15" fill="#083D77" />
<rect x="18" y="17" width="2" height="12" fill="#FFFFFF" />
<rect x="20" y="17" width="2" height="15" fill="#083D77" />
<rect x="22" y="17" width="8" height="2" fill="#FFFFFF" />
<rect x="30" y="17" width="2" height="15" fill="#083D77" />
<rect x="22" y="19" width="2" height="10" fill="#FFFFFF" />
<rect x="24" y="19" width="6" height="2" fill="#083D77" />
<rect x="24" y="21" width="4" height="2" fill="#FFFFFF" />
<rect x="28" y="21" width="2" height="11" fill="#083D77" />
<rect x="24" y="23" width="4" height="9" fill="#083D77" />
<rect x="18" y="29" width="2" height="3" fill="#083D77" />
<rect x="22" y="29" width="2" height="3" fill="#083D77" />
</svg>